<svg xmlns="http://www.w3.org/2000/svg" viewBox="0 0 64 64" role="img" aria-label="FF14Gils favicon">
  <title>FF14Gils</title>
  <rect width="64" height="64" rx="14" fill="#0d0d10"/>
  <rect x="4" y="4" width="56" height="56" rx="12" fill="#181a20" stroke="#2e7e6b" stroke-width="3"/>
  <circle cx="32" cy="32" r="20" fill="#f6c55d" stroke="#7d5216" stroke-width="4"/>
  <path d="M43 25c-2.7-4.3-7-6.4-12.7-6.4-8 0-14.3 5.9-14.3 13.5 0 7.8 6.3 13.3 14.9 13.3 5.3 0 9.7-1.7 12.9-5.1V31H31v7h5.9c-1.4 1.2-3.5 1.8-6 1.8-5.3 0-8.8-3.1-8.8-7.8 0-4.6 3.5-7.8 8.4-7.8 3.1 0 5.4 1.2 7.2 3.6L43 25Z" fill="#111216"/>
  <circle cx="46" cy="17" r="5" fill="#5cd3b2"/>
</svg>
