<svg xmlns="http://www.w3.org/2000/svg" viewBox="0 0 64 64" role="img" aria-labelledby="kofi-title">
  <title id="kofi-title">Ko-fi</title>
  <rect width="64" height="64" rx="14" fill="#13c3ff" />
  <path
    fill="#ffffff"
    d="M14 22.5c0-3 2.4-5.5 5.5-5.5h26.9c3 0 5.5 2.4 5.5 5.5v2.3h2.4c4 0 7.2 3.2 7.2 7.2s-3.2 7.2-7.2 7.2h-2.8c-1.3 5.1-5.9 8.8-11.4 8.8H25.8C19.3 48 14 42.7 14 36.2V22.5Zm37.9 8.1v3.1h2.4c.9 0 1.6-.7 1.6-1.6s-.7-1.6-1.6-1.6h-2.4Z"
  />
  <path
    fill="#ff5f5f"
    d="M31.8 38.2 24 30.7c-2.2-2.1-2.4-5.3-.5-7.3 1.9-2 5.1-1.9 7.3.2l1 1 1-1c2.2-2.1 5.4-2.2 7.3-.2 1.9 2 1.7 5.2-.5 7.3l-7.8 7.5Z"
  />
</svg>
